<svg width="20" height="19" viewBox="0 0 20 19" fill="none" xmlns="http://www.w3.org/2000/svg">
<path d="M18.422 15.883L18.951 16.415L18.421 15.883H18.422ZM5.81599 13.727L6.34399 13.195L5.81499 13.727H5.81599ZM1.68999 3.13502L1.16199 2.60402L1.69099 3.13602L1.68999 3.13502ZM13.628 12.891L14.085 12.438L13.026 11.374L12.572 11.827L13.628 12.891ZM15.614 12.248L17.525 13.287L18.24 11.969L16.33 10.931L15.614 12.248ZM17.892 15.351L16.472 16.764L17.529 17.827L18.949 16.415L17.892 15.351ZM15.606 17.218C14.156 17.354 10.406 17.233 6.34399 13.195L5.28599 14.258C9.71799 18.665 13.937 18.881 15.746 18.712L15.605 17.218H15.606ZM6.34399 13.195C2.47299 9.34502 1.83099 6.10802 1.75099 4.70302L0.25299 4.78802C0.35299 6.55602 1.14799 10.144 5.28599 14.258L6.34399 13.195ZM7.71899 7.01502L8.00599 6.72902L6.94999 5.66602L6.66299 5.95102L7.71999 7.01402L7.71899 7.01502ZM8.23399 3.09402L6.97399 1.41002L5.77299 2.31002L7.03299 3.99302L8.23399 3.09402ZM2.73299 1.04302L1.16299 2.60302L2.22099 3.66702L3.78999 2.10702L2.73299 1.04302ZM7.19099 6.48302C6.66099 5.95102 6.66099 5.95102 6.66099 5.95302H6.65899L6.65599 5.95702C6.60878 6.00521 6.56625 6.05778 6.52899 6.11402C6.47499 6.19402 6.41599 6.29902 6.36599 6.43202C6.24422 6.77534 6.21389 7.14443 6.27799 7.50302C6.41199 8.36802 7.00799 9.51102 8.53399 11.029L9.59199 9.96502C8.16299 8.54502 7.82299 7.68102 7.75999 7.27302C7.72999 7.07902 7.76099 6.98302 7.76999 6.96102C7.77499 6.94702 7.77699 6.94602 7.76999 6.95502C7.76117 6.96889 7.75113 6.98194 7.73999 6.99402L7.72999 7.00402C7.72676 7.00713 7.72342 7.01013 7.71999 7.01302L7.18999 6.48302H7.19099ZM8.53399 11.029C10.061 12.547 11.21 13.139 12.076 13.271C12.519 13.339 12.876 13.285 13.147 13.184C13.2985 13.1279 13.4403 13.0483 13.567 12.948C13.5842 12.9336 13.6009 12.9186 13.617 12.903L13.624 12.897L13.627 12.894L13.628 12.892C13.628 12.892 13.629 12.891 13.1 12.359C12.57 11.827 12.573 11.826 12.573 11.826L12.575 11.824L12.577 11.822L12.583 11.817L12.593 11.807C12.605 11.7962 12.6177 11.7862 12.631 11.777C12.641 11.77 12.638 11.773 12.624 11.779C12.599 11.788 12.501 11.819 12.304 11.789C11.89 11.725 11.02 11.385 9.59199 9.96502L8.53399 11.029ZM6.97399 1.40902C5.95399 0.0490209 3.94999 -0.166979 2.73299 1.04302L3.78999 2.10702C4.32199 1.57802 5.26599 1.63302 5.77299 2.31002L6.97299 1.40902H6.97399ZM1.75199 4.70402C1.73199 4.35802 1.89099 3.99602 2.22099 3.66802L1.16199 2.60402C0.62499 3.13802 0.20199 3.89402 0.25299 4.78802L1.75199 4.70402ZM16.472 16.764C16.198 17.038 15.902 17.192 15.607 17.219L15.746 18.712C16.481 18.643 17.082 18.273 17.53 17.828L16.472 16.764ZM8.00599 6.72902C8.99099 5.75002 9.06399 4.20302 8.23499 3.09502L7.03399 3.99402C7.43699 4.53302 7.37699 5.24002 6.94899 5.66702L8.00599 6.72902ZM17.526 13.288C18.343 13.732 18.47 14.778 17.893 15.352L18.951 16.415C20.291 15.082 19.878 12.859 18.241 11.97L17.526 13.288ZM14.085 12.439C14.469 12.057 15.087 11.963 15.615 12.249L16.331 10.932C15.247 10.342 13.903 10.505 13.027 11.375L14.085 12.439Z" fill="white"/>
</svg>
